<?xml version="1.0" encoding="iso-8859-1"?>
<!-- Generator: Adobe Illustrator 19.0.0, SVG Export Plug-In . SVG Version: 6.00 Build 0)  -->
<svg version="1.1" id="Capa_1" xmlns="http://www.w3.org/2000/svg" xmlns:xlink="http://www.w3.org/1999/xlink" x="0px" y="0px"
	 viewBox="0 0 512 512" style="enable-background:new 0 0 512 512;" xml:space="preserve">
<path style="fill:#88DEDC;" d="M223.249,512H98.041c-19.316,0-34.975-15.659-34.975-34.975V295.232
	c0-34.092,5.483-67.963,16.238-100.315l46.225-139.044h70.233l46.225,139.044c10.755,32.352,16.238,66.222,16.238,100.315v181.793
	C258.225,496.341,242.566,512,223.249,512z"/>
<path style="fill:#E7EEEF;" d="M199.909,0h-78.527c-4.794,0-8.68,3.886-8.68,8.68v38.513c0,4.794,3.886,8.68,8.68,8.68h78.527
	c4.794,0,8.68-3.886,8.68-8.68V8.68C208.588,3.886,204.702,0,199.909,0z"/>
<path style="opacity:0.1;enable-background:new    ;" d="M150.188,47.193V8.68c0-4.794,3.886-8.68,8.68-8.68h-37.486
	c-4.794,0-8.68,3.886-8.68,8.68v38.513c0,4.794,3.886,8.68,8.68,8.68h37.486C154.074,55.873,150.188,51.987,150.188,47.193z"/>
<rect x="63.069" y="298.97" style="fill:#E7EEEF;" width="195.16" height="167.41"/>
<g>
	<path style="fill:#4D94AE;" d="M193.508,419.072c-3.642,0.001-8.078-1-13.308-2.542c-6.497-1.915-13.203-4.474-15.132-5.368
		c-3.757-1.743-5.391-6.202-3.647-9.96c1.744-3.757,6.201-5.391,9.96-3.647c3.243,1.504,13.369,4.976,19.076,6.145
		c0.503-4.777,0.49-12.784-0.078-18.728c-16.557,4.795-50.763,18.57-54.894,21.239c-3.447,2.298-8.098,1.363-10.397-2.083
		c-2.297-3.446-1.362-8.105,2.085-10.403c6.315-4.21,55.277-23.676,68.187-25.226c3.436-0.412,6.702,1.577,7.916,4.814
		c2.376,6.337,2.561,18.168,2.561,21.644c0,16.228-2.725,19.408-3.889,20.766C199.907,418.102,197.092,419.072,193.508,419.072z
		 M189.825,407.096L189.825,407.096L189.825,407.096z"/>
	<path style="fill:#4D94AE;" d="M159.491,365.715c-12.11,0-24.999-0.325-29.854-1.572c-3.073-0.789-5.316-3.425-5.604-6.585
		c-0.296-3.252-0.208-15.392-0.084-28.616c0.029-3.13,0.053-5.634,0.053-6.859c0-3.482,2.397-6.506,5.787-7.302
		c9.669-2.267,61.34-2.231,69.985,0.05c2.083,0.55,3.83,1.969,4.794,3.896c0.792,1.584,1.365,2.729,1.365,20.039
		c0,7.464-0.13,16.948-0.751,19.741c-0.55,2.475-2.314,4.504-4.688,5.395c-3.28,1.23-20.026,1.645-33.498,1.775
		C164.584,365.7,162.055,365.715,159.491,365.715z M138.839,350.249c12.417,0.796,39.875,0.486,51.96-0.183
		c0.166-6.022,0.181-15.384,0.031-21.299c-11.869-0.794-39.104-0.949-51.878-0.057c-0.001,0.124-0.002,0.248-0.003,0.374
		C138.897,334.509,138.808,343.96,138.839,350.249z"/>
	<path style="fill:#4D94AE;" d="M164.882,373.471c-4.142,0-7.5-3.358-7.5-7.5v-45.373c0-4.142,3.358-7.5,7.5-7.5s7.5,3.358,7.5,7.5
		v45.373C172.382,370.113,169.024,373.471,164.882,373.471z"/>
	<path style="fill:#4D94AE;" d="M198.432,346.904h-67.004c-4.142,0-7.5-3.358-7.5-7.5s3.358-7.5,7.5-7.5h67.004
		c4.142,0,7.5,3.358,7.5,7.5S202.574,346.904,198.432,346.904z"/>
	<path style="fill:#4D94AE;" d="M162.703,394.143c-1.035,0-2.081-0.214-3.075-0.664c-4.238-1.29-28.645-4.002-32.61-3.804
		c-4.16,0.189-7.657-2.986-7.861-7.121s2.977-7.654,7.112-7.86c4.376-0.213,18.329,1.389,19.905,1.573
		c16.729,1.952,18.842,3.095,20.104,3.778c3.644,1.97,4.999,6.521,3.029,10.165C167.949,392.719,165.368,394.143,162.703,394.143z
		 M159.142,393.238c0.096,0.052,0.211,0.116,0.35,0.178C159.373,393.36,159.257,393.301,159.142,393.238z"/>
	<path style="fill:#4D94AE;" d="M178.816,446.55c-19.417,0-48.012-0.968-50.869-1.443c-3.39-0.564-5.963-3.359-6.245-6.784
		c-0.263-3.195-0.155-8.78-0.076-12.858c0.027-1.387,0.05-2.561,0.05-3.311c0-4.142,3.358-7.5,7.5-7.5c4.142,0,7.5,3.358,7.5,7.5
		c0,0.815-0.024,2.093-0.053,3.602c-0.028,1.446-0.062,3.194-0.079,4.921c15.121,0.63,51.67,1.32,56.486,0.518
		c4.062-0.778,7.984,1.886,8.765,5.955c0.78,4.068-1.898,8-5.966,8.781C193.493,446.38,186.959,446.55,178.816,446.55z"/>
	<path style="fill:#4D94AE;" d="M193.805,454.655c-0.539,0-1.085-0.058-1.633-0.18c-4.044-0.898-6.593-4.904-5.695-8.948
		c0.397-2.076,0.583-12.359,0.34-14.561c-0.573-4.102,2.291-7.868,6.393-8.44c4.111-0.572,7.896,2.313,8.468,6.415
		c0.398,2.847,0.326,15.853-0.56,19.839C200.343,452.275,197.244,454.655,193.805,454.655z"/>
	<path style="fill:#4D94AE;" d="M155.318,446.239c-3.204,0.001-6.169-2.068-7.164-5.29c-1.366-4.424-1.472-20.723-1.472-25.612
		c0-4.142,3.358-7.5,7.5-7.5s7.5,3.358,7.5,7.5c0,8.047,0.369,19.048,0.846,21.329c1.127,3.917-1.085,8.031-4.996,9.238
		C156.796,446.13,156.051,446.239,155.318,446.239z M162.539,436.713h0.01H162.539z M162.487,436.525
		c0.007,0.024,0.015,0.049,0.022,0.074C162.502,436.573,162.494,436.548,162.487,436.525z"/>
</g>
<path style="fill:#E7EEEF;" d="M319.273,506.039L319.273,506.039c-20.414-34.784-23.937-76.953-9.58-114.643l25.593-67.182
	c2.513-6.598,2.538-13.886,0.067-20.501l-24.923-66.745c-1.941-5.198,1.903-10.737,7.452-10.737h114.15
	c5.549,0,9.393,5.539,7.452,10.737l-24.923,66.745c-2.47,6.615-2.446,13.903,0.068,20.501l25.593,67.182
	c14.358,37.69,10.834,79.859-9.58,114.643l0,0c-2.167,3.693-6.128,5.961-10.41,5.961h-90.548
	C325.401,512,321.44,509.732,319.273,506.039z"/>
<path style="fill:#51B4DB;" d="M440.221,391.396l-25.593-67.182c-1.028-2.699-1.633-5.513-1.827-8.35
	c-27.904,7.598-46.788-14.603-76.088-7.216c0.949,5.19,0.475,10.575-1.426,15.565l-25.593,67.182
	c-14.358,37.69-10.834,79.859,9.58,114.643l0,0c2.167,3.693,6.128,5.961,10.41,5.961h90.548c4.282,0,8.243-2.268,10.41-5.961l0,0
	C451.055,471.255,454.578,429.086,440.221,391.396z"/>
<polygon style="opacity:0.8;fill:#FFFFFF;enable-background:new    ;" points="195.762,55.873 125.529,55.873 105.349,116.574 
	215.942,116.574 "/>
<path style="opacity:0.1;enable-background:new    ;" d="M195.762,55.873h-70.233L79.304,194.917
	c-10.755,32.352-16.238,66.222-16.238,100.315v181.793c0,19.316,15.659,34.975,34.975,34.975h78.357
	c-19.316,0-34.975-15.659-34.975-34.975V295.232c0-34.092,5.483-67.963,16.238-100.315l13.112-39.44
	c10.493-32.083,46.035-32.182,58.641,1.62l0,0L195.762,55.873z"/>
<path style="opacity:0.1;enable-background:new    ;" d="M380.353,324.214c2.514-6.598,2.538-13.886,0.068-20.501l-24.923-66.745
	c-1.941-5.198,1.903-10.737,7.452-10.737h-45.067c-5.549,0-9.393,5.539-7.452,10.737l24.924,66.745
	c2.47,6.615,2.446,13.903-0.068,20.501l-25.593,67.182c-14.358,37.69-10.834,79.859,9.58,114.643l0,0
	c2.167,3.693,6.128,5.961,10.41,5.961h45.067c-4.282,0-8.243-2.268-10.41-5.961l0,0c-20.414-34.784-23.937-76.953-9.58-114.643
	L380.353,324.214z"/>
<g>
	<path style="fill:#485358;" d="M332.921,439.324c-4.143,0-7.5-3.358-7.5-7.5v-6.978c0-4.142,3.357-7.5,7.5-7.5s7.5,3.358,7.5,7.5
		v6.978C340.421,435.966,337.064,439.324,332.921,439.324z"/>
	<path style="fill:#485358;" d="M416.993,439.324c-4.143,0-7.5-3.358-7.5-7.5v-6.978c0-4.142,3.357-7.5,7.5-7.5s7.5,3.358,7.5,7.5
		v6.978C424.493,435.966,421.136,439.324,416.993,439.324z"/>
	<path style="fill:#485358;" d="M374.957,444.683c-6.415,0-12.515-2.778-16.736-7.622c-2.722-3.122-2.397-7.86,0.726-10.581
		c3.122-2.721,7.86-2.397,10.581,0.726c1.373,1.574,3.352,2.477,5.43,2.477s4.057-0.903,5.43-2.477
		c2.72-3.123,7.458-3.448,10.581-0.726s3.447,7.459,0.725,10.581C387.472,441.905,381.372,444.683,374.957,444.683z"/>
</g>
<path style="fill:#E978A0;" d="M258.225,432.346h-25.792c-4.142,0-7.5-3.358-7.5-7.5V378.5c0-4.142,3.358-7.5,7.5-7.5h25.792v15
	h-18.292v31.346h18.292V432.346z"/>
<g>
</g>
<g>
</g>
<g>
</g>
<g>
</g>
<g>
</g>
<g>
</g>
<g>
</g>
<g>
</g>
<g>
</g>
<g>
</g>
<g>
</g>
<g>
</g>
<g>
</g>
<g>
</g>
<g>
</g>
</svg>
